<?xml version="1.0" standalone="no"?>
<!DOCTYPE svg PUBLIC "-//W3C//DTD SVG 20010904//EN"
 "http://www.w3.org/TR/2001/REC-SVG-20010904/DTD/svg10.dtd">
<svg version="1.0" xmlns="http://www.w3.org/2000/svg"
 width="512.000000pt" height="512.000000pt" viewBox="0 0 512.000000 512.000000"
 preserveAspectRatio="xMidYMid meet">

<g transform="translate(0.000000,512.000000) scale(0.100000,-0.100000)"
fill="#000000" stroke="none">
<path d="M4044 4899 c-19 -39 -34 -72 -32 -74 2 -1 75 -39 162 -82 l160 -80
-100 -47 c-202 -96 -458 -242 -670 -382 l-112 -75 -54 32 c-50 30 -214 113
-240 121 -8 3 2 22 24 49 108 132 178 338 178 527 l0 72 -72 0 c-139 0 -271
-32 -398 -96 -83 -41 -152 -94 -262 -202 -62 -61 -91 -83 -105 -80 -10 3 -165
64 -346 137 -276 110 -335 131 -380 131 -84 0 -135 -32 -281 -179 l-128 -129
103 -57 c57 -32 121 -68 141 -80 l37 -21 -112 -43 c-1089 -419 -1651 -1603
-1284 -2704 111 -331 277 -599 529 -849 70 -71 131 -128 135 -127 4 0 29 27
56 59 l47 59 -92 88 c-50 48 -122 124 -160 168 l-68 80 50 7 c74 11 134 44
188 103 50 55 82 129 82 190 0 59 19 88 146 217 157 159 169 183 169 328 0
133 -16 169 -120 279 -100 105 -177 145 -274 145 -78 0 -156 -31 -218 -87 -22
-20 -52 -41 -67 -47 -15 -5 -101 -10 -192 -10 l-164 0 0 83 c0 46 3 118 6 160
l7 77 167 0 c197 0 241 11 305 75 70 69 91 164 58 261 -13 41 -42 75 -166 201
l-150 152 56 93 c263 440 702 776 1182 904 l92 24 109 -60 c60 -34 111 -63
113 -66 3 -3 -108 -118 -247 -257 l-252 -252 0 -119 c0 -90 -3 -117 -12 -113
-7 3 -84 33 -171 68 l-158 63 -179 -179 c-99 -99 -176 -182 -172 -186 4 -3
111 -48 239 -98 l231 -93 93 -231 c50 -128 95 -235 98 -239 4 -4 87 73 186
172 l179 179 -63 158 c-35 87 -65 164 -68 171 -4 9 23 12 113 12 l119 0 252
252 c139 139 255 250 257 247 3 -3 91 -160 197 -349 105 -190 194 -348 198
-352 12 -14 268 253 290 302 41 90 35 116 -114 487 -74 186 -135 343 -135 349
0 6 11 20 24 33 l23 22 51 -20 c28 -11 93 -41 144 -67 l92 -46 -26 -19 c-15
-11 -37 -28 -49 -38 l-22 -18 47 -62 c29 -37 52 -59 59 -54 7 3 38 27 70 51
54 41 61 43 83 31 36 -19 150 -113 222 -183 l62 -60 0 -413 0 -413 -176 0
c-110 0 -192 -5 -218 -12 -55 -16 -138 -99 -154 -154 -17 -58 -17 -2015 0
-2065 6 -19 20 -47 31 -62 10 -16 18 -30 16 -31 -20 -18 -267 -126 -288 -126
-5 0 -10 30 -13 68 -3 37 -13 83 -23 102 -10 19 -62 81 -116 136 l-99 102 0
76 c0 68 3 80 25 101 15 16 35 25 56 25 91 0 202 81 227 166 16 54 16 333 0
386 -18 61 -89 133 -149 153 -71 24 -308 18 -359 -9 -19 -10 -134 -117 -256
-237 l-220 -219 -79 0 c-108 0 -150 -15 -211 -75 -67 -67 -77 -105 -72 -276 4
-156 9 -168 99 -265 l59 -63 0 -111 c0 -81 -3 -110 -12 -110 -7 0 -71 20 -143
45 -71 24 -133 40 -137 37 -8 -8 -59 -135 -55 -137 1 -1 40 -16 87 -33 545
-199 1135 -171 1669 79 57 27 125 62 152 79 l49 30 651 0 c483 0 662 3 693 12
55 16 138 99 154 154 17 59 17 2009 0 2066 -6 22 -31 62 -55 88 -64 71 -99 80
-314 80 l-178 0 -3 483 -3 482 -36 65 c-95 173 -302 221 -467 108 -23 -16 -54
-47 -69 -69 -14 -21 -29 -39 -34 -39 -4 0 -36 24 -71 54 -35 30 -76 65 -92 78
l-29 24 109 71 c182 117 589 343 619 343 3 0 -22 -54 -56 -121 -33 -67 -59
-122 -57 -124 6 -5 128 -65 133 -65 6 0 265 516 265 528 0 4 -119 67 -265 140
l-265 132 -36 -71z m-854 -125 c0 -40 -35 -146 -73 -219 -34 -66 -66 -105
-186 -228 l-145 -148 152 -379 c84 -209 152 -392 152 -406 0 -18 -17 -44 -54
-82 -30 -31 -57 -54 -60 -51 -3 2 -69 119 -147 259 -77 140 -166 299 -196 354
l-55 98 -307 -306 -306 -306 -103 0 -102 0 0 102 0 103 306 306 306 307 -98
55 c-55 30 -214 119 -354 196 -140 78 -257 144 -259 147 -3 3 20 30 51 60 38
37 64 54 82 54 14 0 197 -68 406 -152 l379 -152 148 145 c158 155 232 204 358
240 78 23 105 23 105 3z m978 -881 c14 -10 35 -32 46 -47 20 -27 21 -41 24
-497 l3 -469 -161 0 -160 0 0 454 c0 298 4 464 11 483 14 37 47 72 84 89 40
19 119 12 153 -13z m-2701 -614 l151 -61 61 -151 c34 -84 61 -157 61 -162 0
-12 -108 -121 -113 -114 -2 2 -30 69 -61 149 -32 80 -63 150 -69 157 -7 6 -77
37 -157 69 -80 31 -147 59 -149 61 -7 5 102 113 114 113 5 0 78 -27 162 -61z
m-747 -468 c0 -23 -9 -41 -29 -62 l-29 -29 -152 0 c-139 0 -151 1 -146 18 3 9
12 46 21 82 8 36 32 112 52 169 l36 104 124 -125 c107 -108 123 -129 123 -157z
m4055 -116 l25 -24 0 -991 0 -991 -25 -24 -24 -25 -671 0 -671 0 -24 25 -25
24 0 991 0 991 25 24 24 25 671 0 671 0 24 -25z m-3773 -475 c26 0 166 -135
184 -177 17 -39 18 -121 3 -160 -6 -15 -66 -85 -135 -155 -138 -140 -159 -176
-173 -287 -16 -123 -66 -164 -197 -159 l-77 3 -43 80 c-62 114 -128 273 -163
395 -31 108 -61 254 -61 295 l0 23 183 4 c207 3 233 11 320 88 46 41 96 63
125 54 8 -2 23 -4 34 -4z m1853 -645 c24 -23 25 -28 25 -175 0 -147 -1 -152
-25 -175 -15 -16 -35 -25 -56 -25 -95 0 -203 -81 -228 -172 -19 -66 -11 -222
14 -268 10 -19 62 -81 116 -136 l99 -102 0 -71 c0 -48 -4 -73 -12 -76 -7 -3
-67 -14 -133 -25 -165 -28 -361 -36 -522 -20 l-131 12 -4 152 c-4 175 -7 183
-99 282 l-59 63 0 115 c0 156 3 159 142 167 70 4 114 11 138 24 19 9 134 116
256 236 l220 219 118 0 c111 0 118 -1 141 -25z"/>
<path d="M3600 1680 l0 -880 80 0 80 0 0 880 0 880 -80 0 -80 0 0 -880z"/>
<path d="M4000 1680 l0 -880 80 0 80 0 0 880 0 880 -80 0 -80 0 0 -880z"/>
<path d="M4400 1680 l0 -880 80 0 80 0 0 880 0 880 -80 0 -80 0 0 -880z"/>
<path d="M2437 3237 c-281 -317 -577 -767 -778 -1182 -259 -536 -414 -1043
-504 -1654 -14 -91 -27 -180 -30 -197 l-5 -32 76 -11 c42 -6 78 -10 80 -9 1 2
19 109 39 238 81 527 195 932 387 1375 204 471 506 960 818 1325 40 47 79 92
86 101 12 13 5 22 -45 67 l-59 52 -65 -73z"/>
<path d="M2495 2626 c-59 -26 -95 -85 -95 -154 0 -34 -9 -46 -101 -137 -117
-117 -139 -152 -139 -230 0 -72 19 -115 66 -151 37 -28 40 -29 185 -32 174 -4
182 -1 279 93 l65 63 92 4 c99 3 124 14 167 72 19 25 21 41 21 205 l0 178 -29
37 c-46 61 -70 66 -288 66 -138 -1 -201 -5 -223 -14z m385 -266 l0 -120 -80 0
c-99 0 -132 -15 -215 -99 l-59 -61 -103 0 c-100 0 -103 1 -103 23 0 15 32 54
101 122 110 110 139 154 139 215 l0 40 160 0 160 0 0 -120z"/>
<path d="M3520 240 l0 -80 120 0 120 0 0 80 0 80 -120 0 -120 0 0 -80z"/>
<path d="M4480 240 l0 -80 120 0 120 0 0 80 0 80 -120 0 -120 0 0 -80z"/>
</g>
</svg>
