<?xml version="1.0" standalone="no"?>
<!DOCTYPE svg PUBLIC "-//W3C//DTD SVG 20010904//EN"
 "http://www.w3.org/TR/2001/REC-SVG-20010904/DTD/svg10.dtd">
<svg version="1.0" xmlns="http://www.w3.org/2000/svg"
 width="512.000000pt" height="512.000000pt" viewBox="0 0 512.000000 512.000000"
 preserveAspectRatio="xMidYMid meet">

<g transform="translate(0.000000,512.000000) scale(0.100000,-0.100000)"
fill="#000000" stroke="none">
<path d="M2365 5104 c-461 -77 -872 -450 -985 -893 -25 -98 -45 -278 -36 -326
7 -34 8 -35 56 -35 l50 0 0 -55 0 -55 -64 0 c-144 0 -226 -69 -242 -202 -11
-97 29 -229 97 -314 46 -58 125 -113 189 -130 l56 -16 18 -67 c10 -36 20 -72
23 -78 4 -10 -72 -13 -359 -13 -219 0 -378 -4 -400 -10 -56 -16 -119 -69 -147
-125 -25 -48 -26 -56 -26 -235 0 -171 2 -188 22 -226 41 -77 126 -134 199
-134 l36 0 -6 -42 c-17 -113 -26 -259 -26 -421 l0 -177 -70 -81 c-121 -140
-199 -288 -248 -468 -26 -96 -26 -97 -30 -549 l-3 -452 2091 0 2091 0 -4 452
c-3 427 -5 458 -25 536 -47 178 -133 343 -251 479 l-71 83 0 172 c0 156 -9
291 -25 419 l-7 47 79 3 c68 3 85 8 115 31 64 49 70 81 66 349 -3 232 -3 236
-28 272 -14 21 -43 46 -66 57 -38 19 -62 20 -437 20 -218 0 -397 1 -397 3 0 1
11 35 23 76 l23 74 62 22 c85 31 134 67 187 137 65 87 88 155 89 263 1 75 -3
97 -21 131 -44 82 -106 114 -220 114 l-63 0 0 55 0 54 393 3 c382 3 393 4 433
25 112 60 150 201 77 291 -53 66 -89 77 -530 163 l-412 81 -44 77 c-156 267
-410 476 -695 570 -175 58 -366 74 -537 45z m338 -149 c277 -48 557 -230 717
-466 84 -123 151 -296 166 -430 l7 -59 -342 0 -341 0 0 138 c0 204 -26 269
-132 328 -53 29 -54 29 -223 29 -192 0 -225 -7 -288 -64 -67 -60 -80 -103 -85
-278 l-4 -153 -339 0 -339 0 0 29 c0 40 25 154 48 221 122 352 460 637 835
705 98 18 218 18 320 0z m28 -643 l29 -32 0 -140 0 -140 -212 2 -213 3 -3 116
c-5 213 14 232 231 227 l139 -3 29 -33z m1339 -137 c184 -36 350 -72 368 -80
35 -16 41 -39 18 -71 -14 -18 -31 -19 -365 -22 l-351 -3 0 30 c0 29 -24 167
-35 202 -4 13 -1 16 12 13 10 -2 169 -33 353 -69z m-540 -614 c0 -385 -19
-492 -130 -716 -123 -250 -412 -509 -670 -601 -96 -34 -215 -38 -304 -9 -280
90 -611 395 -724 666 -42 101 -78 230 -91 323 -6 43 -11 201 -11 352 l0 274
965 0 965 0 0 -289z m-2080 -130 c0 -88 3 -167 6 -176 6 -16 5 -16 -22 -2 -80
42 -138 144 -138 245 -1 79 13 92 96 92 l58 0 0 -159z m2366 145 c16 -12 19
-26 19 -83 -1 -98 -42 -170 -137 -242 -17 -13 -18 -3 -18 163 l0 176 58 0 c35
0 66 -6 78 -14z m-2181 -871 c53 -89 148 -206 239 -292 l76 -73 -574 0 -575 0
-28 24 c-28 24 -28 24 -31 171 -2 100 0 157 9 177 23 57 28 57 455 58 l391 0
38 -65z m2743 -152 l2 -213 -599 0 -599 0 80 78 c89 86 203 227 244 303 l27
49 421 -2 421 -3 3 -212z m-2152 -395 c136 -70 219 -92 339 -92 119 0 205 23
338 90 49 24 90 44 93 44 2 0 4 -47 4 -104 l0 -104 -41 -61 c-109 -163 -295
-253 -465 -224 -132 23 -260 109 -336 227 l-38 59 0 109 c0 60 3 108 8 106 4
-2 48 -24 98 -50z m-256 -47 c0 -67 -3 -80 -17 -85 -10 -2 -86 -19 -169 -36
l-152 -32 -32 23 c-31 23 -36 24 -245 24 -200 0 -215 -1 -242 -21 -47 -34 -63
-78 -63 -175 l0 -86 -42 -28 -41 -27 6 178 c6 160 19 296 32 332 3 9 110 12
485 12 l480 0 0 -79z m2157 -6 c7 -44 16 -161 19 -259 l7 -179 -46 32 -47 32
0 90 c0 108 -14 140 -77 170 -39 19 -57 20 -240 17 -188 -3 -200 -4 -230 -26
l-33 -23 -147 31 c-82 17 -156 34 -165 36 -15 5 -18 18 -18 85 l0 79 483 -2
482 -3 12 -80z m-2084 -269 c77 -122 248 -237 403 -272 193 -43 414 32 565
192 30 32 64 74 74 92 12 20 27 32 40 31 11 0 88 -15 170 -33 l150 -33 5 -362
5 -363 24 -19 c32 -26 73 -24 99 4 21 23 22 29 24 403 l3 379 153 3 152 3 0
-856 0 -855 -155 0 -155 0 0 330 c0 326 0 329 -22 350 -27 25 -69 26 -99 1
l-24 -19 -3 -331 -3 -331 -894 0 -895 0 0 330 c0 317 -1 331 -20 350 -25 25
-71 26 -101 1 l-24 -19 -3 -331 -3 -331 -154 0 -155 0 0 855 0 855 155 0 154
0 3 -386 3 -386 24 -19 c30 -25 72 -24 99 1 22 21 22 23 22 380 l0 360 23 5
c132 31 287 63 307 64 19 1 31 -9 53 -43z m-993 -991 l0 -695 -216 0 -216 0 4
373 c4 347 6 377 27 452 52 186 177 382 324 505 39 33 72 60 74 60 2 0 3 -313
3 -695z m3097 635 c146 -122 273 -321 324 -505 21 -75 23 -105 27 -452 l4
-373 -221 0 -221 0 0 695 c0 382 4 695 8 695 5 0 40 -27 79 -60z"/>
<path d="M2980 3553 c-19 -25 -21 -38 -18 -116 3 -79 6 -91 27 -108 32 -26 67
-24 96 6 23 22 25 32 25 115 0 77 -3 93 -20 110 -30 30 -83 27 -110 -7z"/>
<path d="M2041 3544 c-18 -22 -21 -41 -21 -111 0 -76 2 -86 25 -108 13 -14 36
-25 50 -25 14 0 37 11 50 25 23 22 25 32 25 108 0 102 -19 137 -75 137 -24 0
-39 -7 -54 -26z"/>
<path d="M2265 2760 c-26 -28 -23 -75 6 -106 34 -36 154 -93 226 -106 49 -9
78 -9 130 1 126 23 263 106 263 160 0 31 -39 71 -69 71 -15 0 -62 -18 -103
-39 -127 -66 -207 -64 -320 4 -64 40 -106 44 -133 15z"/>
</g>
</svg>
