<?xml version="1.0" standalone="no"?>
<!DOCTYPE svg PUBLIC "-//W3C//DTD SVG 20010904//EN"
 "http://www.w3.org/TR/2001/REC-SVG-20010904/DTD/svg10.dtd">
<svg version="1.0" xmlns="http://www.w3.org/2000/svg"
 width="512.000000pt" height="512.000000pt" viewBox="0 0 512.000000 512.000000"
 preserveAspectRatio="xMidYMid meet">

<g transform="translate(0.000000,512.000000) scale(0.100000,-0.100000)"
fill="#000000" stroke="none">
<path d="M2480 4800 l0 -160 80 0 80 0 0 160 0 160 -80 0 -80 0 0 -160z"/>
<path d="M767 4752 l-57 -57 113 -113 112 -112 58 58 57 57 -113 113 -112 112
-58 -58z"/>
<path d="M4182 4697 l-112 -112 58 -58 57 -57 113 113 112 112 -58 58 -57 57
-113 -113z"/>
<path d="M1225 4375 l-25 -24 0 -1071 0 -1071 25 -24 24 -25 1311 0 1311 0 24
25 25 24 0 1071 0 1071 -25 24 -24 25 -1311 0 -1311 0 -24 -25z m2535 -1095
l0 -960 -1200 0 -1200 0 0 960 0 960 1200 0 1200 0 0 -960z"/>
<path d="M2530 4073 c-8 -3 -40 -29 -72 -58 -154 -142 -386 -250 -602 -281
-59 -8 -96 -40 -96 -81 0 -60 49 -263 89 -368 77 -203 187 -372 345 -531 113
-113 328 -274 367 -274 39 0 270 182 390 307 199 208 331 461 389 744 11 53
20 109 20 124 0 39 -38 71 -96 79 -217 31 -440 135 -601 280 -59 54 -100 72
-133 59z m195 -307 c113 -73 232 -124 375 -161 82 -21 85 -23 82 -49 -6 -59
-56 -207 -101 -302 -96 -201 -217 -351 -402 -500 l-120 -96 -93 71 c-171 130
-305 286 -405 471 -42 79 -117 292 -123 349 l-3 34 85 22 c185 47 329 118 483
238 l59 46 54 -44 c30 -25 79 -60 109 -79z"/>
<path d="M2636 3370 c-71 -116 -131 -210 -133 -210 -3 0 -31 20 -63 45 -32 25
-63 45 -68 45 -13 0 -94 -108 -90 -120 7 -21 221 -170 243 -170 13 0 35 10 49
23 23 20 326 500 326 516 0 6 -121 81 -131 81 -2 0 -62 -95 -133 -210z"/>
<path d="M560 3280 l0 -80 160 0 160 0 0 80 0 80 -160 0 -160 0 0 -80z"/>
<path d="M4240 3280 l0 -80 160 0 160 0 0 80 0 80 -160 0 -160 0 0 -80z"/>
<path d="M4608 2137 c-31 -14 -185 -145 -432 -365 -426 -380 -445 -396 -532
-440 -94 -48 -636 -262 -662 -262 -21 0 -122 82 -122 100 0 4 120 58 266 120
257 109 269 115 333 176 78 73 119 143 128 213 16 133 -96 261 -229 261 -65 0
-936 -155 -1017 -181 -90 -29 -158 -65 -354 -188 -199 -125 -246 -150 -342
-182 -65 -21 -90 -23 -377 -27 l-308 -4 0 57 c0 46 -4 60 -25 80 l-24 25 -351
0 -351 0 -24 -25 -25 -24 0 -631 0 -631 25 -24 24 -25 351 0 351 0 24 25 c21
20 25 34 25 85 0 39 4 60 12 60 6 0 147 14 312 31 204 21 325 29 376 25 47 -4
155 -29 284 -66 115 -32 243 -64 285 -71 50 -7 188 -9 387 -7 299 4 312 5 395
31 108 33 954 419 1032 471 33 22 83 61 112 88 74 67 762 929 787 986 41 91 6
212 -81 281 -79 63 -172 77 -253 38z m158 -171 c36 -36 42 -63 23 -99 -29 -54
-694 -869 -753 -924 -36 -33 -97 -77 -134 -96 -135 -71 -882 -407 -944 -424
-55 -16 -106 -18 -398 -18 l-335 0 -219 63 c-311 90 -332 92 -678 58 -155 -15
-302 -30 -325 -33 l-43 -6 0 356 0 355 312 4 c428 6 446 12 799 233 111 70
234 140 273 155 53 21 187 49 526 109 250 45 469 81 487 81 36 0 73 -38 73
-75 0 -30 -55 -110 -98 -143 -19 -15 -180 -88 -356 -162 -416 -176 -412 -169
-228 -351 123 -121 167 -145 254 -137 37 3 145 42 358 127 332 134 377 155
460 211 30 21 231 195 447 388 215 192 397 352 405 355 33 13 62 5 94 -27z
m-3966 -1126 l0 -520 -240 0 -240 0 0 520 0 520 240 0 240 0 0 -520z"/>
<path d="M480 560 l0 -80 80 0 80 0 0 80 0 80 -80 0 -80 0 0 -80z"/>
</g>
</svg>
